<?xml version="1.0" encoding="UTF-8" standalone="no"?>
<svg
   xmlns:dc="http://purl.org/dc/elements/1.1/"
   xmlns:cc="http://creativecommons.org/ns#"
   xmlns:rdf="http://www.w3.org/1999/02/22-rdf-syntax-ns#"
   xmlns:svg="http://www.w3.org/2000/svg"
   xmlns="http://www.w3.org/2000/svg"
   xmlns:sodipodi="http://sodipodi.sourceforge.net/DTD/sodipodi-0.dtd"
   xmlns:inkscape="http://www.inkscape.org/namespaces/inkscape"
   version="1.1"
   id="Layer_1"
   x="0px"
   y="0px"
   width="100px"
   height="100px"
   viewBox="0 0 100 100"
   enable-background="new 0 0 100 100"
   xml:space="preserve"
   inkscape:version="0.48.3.1 r9886"
   sodipodi:docname="noun_project_1670.svg"><metadata
   id="metadata3961"><rdf:RDF><cc:Work
       rdf:about=""><dc:format>image/svg+xml</dc:format><dc:type
         rdf:resource="http://purl.org/dc/dcmitype/StillImage" /></cc:Work></rdf:RDF></metadata><defs
   id="defs3959" /><sodipodi:namedview
   pagecolor="#ffffff"
   bordercolor="#666666"
   borderopacity="1"
   objecttolerance="10"
   gridtolerance="10"
   guidetolerance="10"
   inkscape:pageopacity="0"
   inkscape:pageshadow="2"
   inkscape:window-width="1551"
   inkscape:window-height="876"
   id="namedview3957"
   showgrid="false"
   inkscape:zoom="1"
   inkscape:cx="-24.576271"
   inkscape:cy="100.84746"
   inkscape:window-x="49"
   inkscape:window-y="24"
   inkscape:window-maximized="1"
   inkscape:current-layer="Layer_1" />
<g
   id="g3905"
   transform="matrix(3.4063813,0,0,3.4063813,-129.6083,-135.02579)"
   style="fill:#66ac9b;fill-opacity:1">
	<path
   d="m 56.514,71.866 c -0.553,0 -1.001,-0.448 -1.001,-1.001 V 14.513 c 0,-0.553 0.448,-1 1.001,-1 0.551,0 0.999,0.447 0.999,1 v 56.353 c 0,0.552 -0.449,1 -0.999,1 z"
   id="path3907"
   inkscape:connector-curvature="0"
   style="fill:#66ac9b;fill-opacity:1" />
</g>
<g
   id="g3909"
   transform="matrix(3.4063813,0,0,3.4063813,-129.6083,-135.02579)"
   style="fill:#66ac9b;fill-opacity:1">
	<g
   id="g3911"
   style="fill:#66ac9b;fill-opacity:1">
		<path
   d="m 18.875,43.261 c -0.054,0 -0.108,-0.007 -0.163,-0.021 -0.357,-0.09 -0.575,-0.451 -0.485,-0.809 0.056,-0.223 0.117,-0.447 0.184,-0.672 0.104,-0.353 0.474,-0.555 0.829,-0.449 0.354,0.105 0.554,0.477 0.45,0.829 -0.061,0.205 -0.117,0.411 -0.168,0.615 -0.076,0.304 -0.348,0.507 -0.647,0.507 z"
   id="path3913"
   inkscape:connector-curvature="0"
   style="fill:#66ac9b;fill-opacity:1" />
	</g>
	<g
   id="g3915"
   style="fill:#66ac9b;fill-opacity:1">
		<path
   d="m 18.475,50.814 c -0.352,0 -0.645,-0.274 -0.666,-0.628 -0.024,-0.423 -0.047,-0.848 -0.065,-1.273 -0.016,-0.367 0.27,-0.68 0.638,-0.694 0.37,-0.016 0.679,0.27 0.695,0.637 0.019,0.42 0.041,0.838 0.065,1.256 0.021,0.367 -0.261,0.681 -0.628,0.703 -0.014,-10e-4 -0.027,-10e-4 -0.039,-10e-4 z m -0.092,-3.793 c -0.007,0 -0.014,0 -0.021,0 -0.369,-0.013 -0.657,-0.32 -0.646,-0.688 0.014,-0.433 0.039,-0.866 0.079,-1.303 0.034,-0.366 0.354,-0.634 0.725,-0.604 0.367,0.034 0.637,0.358 0.604,0.725 -0.038,0.41 -0.061,0.818 -0.074,1.224 -0.012,0.36 -0.308,0.646 -0.667,0.646 z"
   id="path3917"
   inkscape:connector-curvature="0"
   style="fill:#66ac9b;fill-opacity:1" />
	</g>
	<g
   id="g3919"
   style="fill:#66ac9b;fill-opacity:1">
		<path
   d="m 30.726,69.043 c -0.358,0 -0.654,-0.283 -0.667,-0.645 -0.012,-0.368 0.276,-0.677 0.645,-0.688 0.41,-0.015 0.811,-0.047 1.192,-0.101 0.359,-0.055 0.701,0.204 0.751,0.569 0.05,0.365 -0.205,0.702 -0.569,0.751 -0.426,0.06 -0.874,0.098 -1.33,0.112 -0.006,0.002 -0.014,0.002 -0.022,0.002 z m -2.522,-0.141 c -0.031,0 -0.062,-0.002 -0.094,-0.007 -0.437,-0.062 -0.875,-0.143 -1.301,-0.24 -0.359,-0.082 -0.583,-0.44 -0.5,-0.799 0.083,-0.359 0.441,-0.584 0.799,-0.5 0.39,0.089 0.789,0.163 1.188,0.219 0.364,0.051 0.619,0.389 0.567,0.753 -0.047,0.333 -0.333,0.574 -0.659,0.574 z m 6.216,-0.633 c -0.252,0 -0.494,-0.143 -0.606,-0.387 -0.154,-0.335 -0.009,-0.73 0.327,-0.885 0.337,-0.156 0.663,-0.349 0.967,-0.574 0.295,-0.221 0.713,-0.157 0.932,0.139 0.219,0.296 0.157,0.713 -0.139,0.934 -0.377,0.279 -0.782,0.52 -1.202,0.713 -0.09,0.041 -0.186,0.06 -0.279,0.06 z m -9.859,-0.396 c -0.095,0 -0.19,-0.02 -0.281,-0.062 -0.419,-0.194 -0.821,-0.428 -1.196,-0.69 -0.302,-0.211 -0.375,-0.627 -0.163,-0.929 0.211,-0.302 0.627,-0.375 0.929,-0.163 0.311,0.219 0.645,0.411 0.993,0.573 0.333,0.154 0.479,0.551 0.323,0.885 -0.114,0.243 -0.354,0.386 -0.605,0.386 z m 12.66,-2.09 c -0.129,0 -0.259,-0.037 -0.374,-0.114 -0.305,-0.206 -0.385,-0.621 -0.178,-0.927 0.21,-0.311 0.41,-0.646 0.612,-1.025 0.171,-0.325 0.576,-0.449 0.901,-0.276 0.326,0.173 0.449,0.576 0.277,0.901 -0.223,0.422 -0.448,0.798 -0.685,1.148 -0.128,0.191 -0.338,0.293 -0.553,0.293 z M 21.68,65.468 c -0.206,0 -0.409,-0.094 -0.54,-0.273 -0.257,-0.354 -0.5,-0.738 -0.721,-1.143 -0.177,-0.324 -0.058,-0.729 0.266,-0.905 0.324,-0.176 0.729,-0.058 0.905,0.265 0.194,0.355 0.406,0.69 0.629,0.997 0.217,0.298 0.151,0.715 -0.146,0.933 -0.12,0.085 -0.257,0.126 -0.393,0.126 z M 38.9,62.386 c -0.08,0 -0.162,-0.015 -0.241,-0.046 -0.344,-0.133 -0.514,-0.521 -0.381,-0.863 0.153,-0.391 0.298,-0.784 0.441,-1.174 0.126,-0.346 0.512,-0.522 0.855,-0.396 0.346,0.126 0.523,0.51 0.397,0.855 -0.146,0.398 -0.294,0.799 -0.45,1.197 -0.102,0.265 -0.354,0.427 -0.621,0.427 z M 20.022,62.069 c -0.282,0 -0.543,-0.18 -0.634,-0.462 -0.133,-0.411 -0.252,-0.831 -0.36,-1.259 -0.09,-0.355 0.125,-0.719 0.482,-0.81 0.355,-0.09 0.72,0.126 0.81,0.483 0.102,0.398 0.213,0.791 0.337,1.175 0.113,0.351 -0.079,0.727 -0.43,0.84 -0.068,0.024 -0.137,0.033 -0.205,0.033 z m 20.191,-3.248 c -0.074,0 -0.15,-0.012 -0.224,-0.038 -0.347,-0.123 -0.528,-0.505 -0.405,-0.853 l 0.422,-1.191 c 0.123,-0.347 0.506,-0.528 0.851,-0.405 0.348,0.122 0.529,0.504 0.406,0.851 l -0.422,1.193 c -0.096,0.273 -0.355,0.443 -0.628,0.443 z M 19.169,58.374 c -0.322,0 -0.604,-0.233 -0.658,-0.562 -0.068,-0.422 -0.129,-0.847 -0.185,-1.273 -0.047,-0.365 0.21,-0.699 0.576,-0.747 0.36,-0.041 0.699,0.21 0.747,0.576 0.054,0.413 0.113,0.823 0.179,1.232 0.059,0.363 -0.188,0.706 -0.552,0.765 -0.036,0.006 -0.071,0.009 -0.107,0.009 z m 22.337,-3.121 c -0.08,0 -0.162,-0.015 -0.241,-0.045 -0.344,-0.134 -0.514,-0.52 -0.381,-0.863 0.155,-0.399 0.315,-0.797 0.482,-1.192 0.144,-0.339 0.535,-0.496 0.875,-0.354 0.339,0.144 0.498,0.535 0.354,0.875 -0.162,0.382 -0.316,0.767 -0.467,1.153 -0.102,0.264 -0.355,0.426 -0.622,0.426 z m -22.782,-0.65 c -0.343,0 -0.635,-0.263 -0.664,-0.611 -0.036,-0.424 -0.067,-0.848 -0.096,-1.272 -0.026,-0.366 0.252,-0.686 0.619,-0.71 0.369,-0.012 0.686,0.251 0.711,0.619 0.028,0.418 0.06,0.836 0.095,1.252 0.031,0.367 -0.242,0.689 -0.609,0.72 -0.019,0.002 -0.038,0.002 -0.056,0.002 z m 24.338,-2.811 c -0.106,0 -0.213,-0.025 -0.313,-0.078 -0.325,-0.174 -0.448,-0.578 -0.274,-0.903 0.204,-0.38 0.418,-0.758 0.646,-1.131 0.191,-0.313 0.602,-0.416 0.917,-0.222 0.314,0.19 0.414,0.602 0.222,0.915 -0.214,0.352 -0.416,0.706 -0.607,1.066 -0.121,0.225 -0.352,0.353 -0.591,0.353 z m 2.136,-3.125 c -0.164,0 -0.329,-0.061 -0.458,-0.182 -0.268,-0.253 -0.281,-0.674 -0.029,-0.942 0.304,-0.323 0.63,-0.634 0.969,-0.923 0.279,-0.24 0.701,-0.207 0.939,0.073 0.239,0.28 0.207,0.701 -0.073,0.94 -0.302,0.259 -0.592,0.535 -0.864,0.823 -0.13,0.141 -0.307,0.211 -0.484,0.211 z m 3.017,-2.274 c -0.246,0 -0.483,-0.137 -0.599,-0.373 -0.163,-0.33 -0.026,-0.73 0.304,-0.893 0.43,-0.211 0.861,-0.381 1.284,-0.504 0.355,-0.104 0.724,0.099 0.827,0.452 0.104,0.354 -0.1,0.725 -0.453,0.828 -0.349,0.103 -0.708,0.242 -1.069,0.42 -0.094,0.047 -0.195,0.07 -0.294,0.07 z"
   id="path3921"
   inkscape:connector-curvature="0"
   style="fill:#66ac9b;fill-opacity:1" />
	</g>
	<g
   id="g3923"
   style="fill:#66ac9b;fill-opacity:1">
		<path
   d="m 52.531,46.108 c -0.102,0 -0.206,-0.023 -0.303,-0.073 -0.16,-0.082 -0.329,-0.148 -0.502,-0.198 -0.354,-0.103 -0.558,-0.473 -0.455,-0.827 0.103,-0.354 0.472,-0.557 0.826,-0.454 0.255,0.073 0.502,0.172 0.737,0.293 0.329,0.167 0.458,0.569 0.291,0.896 -0.117,0.232 -0.351,0.363 -0.594,0.363 z"
   id="path3925"
   inkscape:connector-curvature="0"
   style="fill:#66ac9b;fill-opacity:1" />
	</g>
</g>
<g
   id="g3927"
   transform="matrix(3.4063813,0,0,3.4063813,-129.6083,-135.02579)"
   style="fill:#66ac9b;fill-opacity:1">
	<g
   id="g3929"
   style="fill:#66ac9b;fill-opacity:1">
		<path
   d="m 60.064,49.858 c -0.192,0 -0.385,-0.084 -0.517,-0.246 -0.148,-0.182 -0.291,-0.368 -0.429,-0.561 -0.216,-0.299 -0.148,-0.716 0.15,-0.931 0.298,-0.215 0.717,-0.147 0.932,0.15 0.122,0.171 0.25,0.337 0.381,0.499 0.233,0.286 0.188,0.706 -0.097,0.939 -0.123,0.101 -0.271,0.15 -0.42,0.15 z"
   id="path3931"
   inkscape:connector-curvature="0"
   style="fill:#66ac9b;fill-opacity:1" />
	</g>
	<g
   id="g3933"
   style="fill:#66ac9b;fill-opacity:1">
		<path
   d="m 66.333,56.219 c -0.213,0 -0.421,-0.1 -0.55,-0.287 -0.253,-0.366 -0.538,-0.726 -0.875,-1.101 -0.247,-0.273 -0.223,-0.695 0.05,-0.941 0.274,-0.247 0.696,-0.223 0.942,0.051 0.375,0.417 0.695,0.821 0.98,1.232 0.208,0.304 0.133,0.719 -0.171,0.929 -0.114,0.079 -0.246,0.117 -0.376,0.117 z m -3.075,-3.234 c -0.157,0 -0.315,-0.056 -0.441,-0.167 l -0.228,-0.2 c -0.298,-0.266 -0.598,-0.529 -0.893,-0.797 -0.272,-0.248 -0.294,-0.669 -0.046,-0.943 0.245,-0.272 0.668,-0.294 0.941,-0.046 0.292,0.264 0.587,0.525 0.881,0.785 l 0.228,0.201 c 0.275,0.245 0.301,0.665 0.057,0.942 -0.131,0.149 -0.316,0.225 -0.499,0.225 z"
   id="path3935"
   inkscape:connector-curvature="0"
   style="fill:#66ac9b;fill-opacity:1" />
	</g>
	<g
   id="g3937"
   style="fill:#66ac9b;fill-opacity:1">
		<path
   d="m 75.17,68.259 c -0.345,0 -0.636,-0.267 -0.664,-0.615 -0.028,-0.367 0.245,-0.688 0.613,-0.717 0.43,-0.033 0.869,-0.121 1.308,-0.261 0.349,-0.113 0.726,0.081 0.837,0.433 0.112,0.351 -0.081,0.726 -0.432,0.837 -0.535,0.172 -1.077,0.279 -1.609,0.321 -0.019,10e-4 -0.036,0.002 -0.053,0.002 z M 72.271,67.73 c -0.096,0 -0.192,-0.021 -0.284,-0.062 -0.481,-0.228 -0.95,-0.519 -1.392,-0.867 -0.289,-0.228 -0.339,-0.647 -0.11,-0.937 0.228,-0.289 0.646,-0.338 0.936,-0.11 0.362,0.285 0.744,0.522 1.135,0.707 0.332,0.156 0.477,0.554 0.319,0.887 -0.114,0.241 -0.354,0.382 -0.604,0.382 z m 6.955,-1.196 c -0.194,0 -0.386,-0.084 -0.518,-0.246 -0.232,-0.286 -0.19,-0.706 0.096,-0.938 0.354,-0.288 0.691,-0.609 0.999,-0.956 0.248,-0.275 0.669,-0.297 0.942,-0.053 0.275,0.245 0.298,0.667 0.053,0.941 -0.355,0.398 -0.743,0.77 -1.151,1.102 -0.125,0.101 -0.273,0.15 -0.421,0.15 z M 69.123,64.666 c -0.244,0 -0.479,-0.134 -0.596,-0.366 -0.226,-0.445 -0.418,-0.932 -0.591,-1.485 -0.11,-0.352 0.087,-0.726 0.438,-0.836 0.351,-0.106 0.726,0.087 0.835,0.438 0.15,0.483 0.316,0.902 0.508,1.282 0.166,0.329 0.034,0.73 -0.295,0.896 -0.095,0.049 -0.197,0.071 -0.299,0.071 z M 81.911,63.01 c -0.09,0 -0.181,-0.019 -0.268,-0.057 -0.338,-0.148 -0.49,-0.543 -0.342,-0.88 0.188,-0.428 0.338,-0.865 0.444,-1.299 0.088,-0.358 0.448,-0.577 0.807,-0.489 0.359,0.088 0.576,0.448 0.489,0.808 -0.125,0.509 -0.299,1.02 -0.52,1.519 -0.109,0.249 -0.353,0.398 -0.61,0.398 z M 67.892,60.381 c -0.309,0 -0.585,-0.215 -0.652,-0.528 -0.089,-0.42 -0.198,-0.916 -0.337,-1.409 -0.1,-0.355 0.107,-0.723 0.463,-0.822 0.354,-0.1 0.723,0.108 0.821,0.463 0.148,0.529 0.264,1.051 0.357,1.491 0.077,0.36 -0.153,0.715 -0.513,0.791 -0.047,0.009 -0.093,0.014 -0.139,0.014 z m 14.64,-1.74 c -0.321,0 -0.604,-0.232 -0.657,-0.561 -0.072,-0.441 -0.192,-0.876 -0.36,-1.289 -0.137,-0.343 0.028,-0.73 0.37,-0.869 0.342,-0.136 0.729,0.027 0.868,0.369 0.204,0.507 0.352,1.036 0.438,1.576 0.059,0.364 -0.188,0.705 -0.551,0.765 -0.036,0.006 -0.073,0.009 -0.108,0.009 z M 80.58,54.674 c -0.201,0 -0.399,-0.091 -0.531,-0.263 -0.306,-0.4 -0.616,-0.778 -0.917,-1.143 -0.234,-0.283 -0.194,-0.703 0.09,-0.938 0.284,-0.235 0.705,-0.194 0.938,0.088 0.312,0.378 0.633,0.769 0.949,1.184 0.223,0.292 0.167,0.711 -0.126,0.935 -0.12,0.093 -0.262,0.137 -0.403,0.137 z m -2.716,-3.549 c -0.23,0 -0.455,-0.119 -0.578,-0.334 -0.302,-0.522 -0.512,-1.023 -0.644,-1.533 -0.093,-0.357 0.121,-0.721 0.478,-0.813 0.355,-0.095 0.721,0.122 0.812,0.479 0.102,0.393 0.269,0.786 0.509,1.203 0.184,0.319 0.074,0.728 -0.245,0.911 -0.105,0.059 -0.219,0.087 -0.332,0.087 z"
   id="path3939"
   inkscape:connector-curvature="0"
   style="fill:#66ac9b;fill-opacity:1" />
	</g>
	<g
   id="g3941"
   style="fill:#66ac9b;fill-opacity:1">
		<path
   d="m 77.463,46.792 c -0.07,0 -0.141,-0.011 -0.211,-0.034 -0.35,-0.116 -0.538,-0.493 -0.422,-0.844 0.072,-0.217 0.155,-0.44 0.252,-0.671 0.142,-0.34 0.533,-0.5 0.872,-0.357 0.34,0.142 0.5,0.532 0.358,0.872 -0.083,0.199 -0.155,0.391 -0.217,0.577 -0.092,0.281 -0.353,0.457 -0.632,0.457 z"
   id="path3943"
   inkscape:connector-curvature="0"
   style="fill:#66ac9b;fill-opacity:1" />
	</g>
</g>
<g
   id="g3945"
   transform="matrix(3.4063813,0,0,3.4063813,-129.6083,-135.02579)"
   style="fill:#66ac9b;fill-opacity:1">
	<g
   id="g3947"
   style="fill:#66ac9b;fill-opacity:1">
		<path
   d="m 81.4,41.597 c -0.194,0 -0.386,-0.084 -0.518,-0.246 -0.282,-0.347 -0.562,-0.671 -0.846,-0.983 -0.248,-0.272 -0.228,-0.694 0.045,-0.942 0.272,-0.246 0.693,-0.227 0.942,0.046 0.299,0.33 0.595,0.673 0.893,1.039 0.232,0.285 0.189,0.705 -0.097,0.938 -0.123,0.099 -0.271,0.148 -0.419,0.148 z m -2.755,-2.896 c -0.162,0 -0.324,-0.06 -0.453,-0.179 -0.31,-0.287 -0.634,-0.581 -0.978,-0.888 -0.274,-0.247 -0.297,-0.668 -0.052,-0.942 0.246,-0.275 0.669,-0.297 0.941,-0.053 0.351,0.313 0.679,0.613 0.995,0.905 0.27,0.25 0.286,0.673 0.036,0.942 -0.131,0.143 -0.31,0.215 -0.489,0.215 z"
   id="path3949"
   inkscape:connector-curvature="0"
   style="fill:#66ac9b;fill-opacity:1" />
	</g>
	<g
   id="g3951"
   style="fill:#66ac9b;fill-opacity:1">
		<path
   d="m 77.869,41.75 c -0.069,0 -0.14,-0.011 -0.209,-0.034 -0.35,-0.115 -0.54,-0.492 -0.424,-0.842 0.123,-0.374 0.382,-0.826 0.768,-1.341 0.222,-0.296 0.639,-0.355 0.935,-0.135 0.295,0.221 0.354,0.639 0.134,0.934 -0.287,0.384 -0.495,0.733 -0.57,0.96 -0.094,0.279 -0.355,0.458 -0.634,0.458 z m 2.525,-3.064 c -0.199,0 -0.396,-0.089 -0.527,-0.259 -0.227,-0.29 -0.173,-0.709 0.118,-0.936 0.736,-0.571 1.288,-0.776 1.756,-0.657 0.356,0.089 0.574,0.451 0.484,0.81 -0.084,0.338 -0.418,0.551 -0.754,0.495 -0.045,0.014 -0.252,0.083 -0.67,0.407 -0.121,0.094 -0.265,0.14 -0.407,0.14 z"
   id="path3953"
   inkscape:connector-curvature="0"
   style="fill:#66ac9b;fill-opacity:1" />
	</g>
</g>
<path
   d="m 186.16665,157.48017 c -0.42239,0 -0.84479,-0.0579 -1.26036,-0.17713 L 62.474133,121.98908 -103.99572,149.84647 c -1.31486,0.22141 -2.66379,-0.14988 -3.68571,-1.0151 -1.02191,-0.86522 -1.60781,-2.1324 -1.60781,-3.47111 V -69.670961 c 0,-2.22096 1.60441,-4.11491 3.79471,-4.4828 L 61.990423,-102.17806 c 0.66765,-0.11241 1.35234,-0.0715 2.00977,0.11582 L 187.4236,-66.462151 c 1.94505,0.56205 3.28716,2.34359 3.28716,4.36358 V 152.93265 c 0,1.42727 -0.67106,2.77279 -1.81219,3.6312 -0.7971,0.60293 -1.7611,0.91632 -2.73192,0.91632 z M 62.739833,112.79185 c 0.4292,0 0.84819,0.0647 1.26036,0.18054 L 181.62253,146.89995 V -58.675161 L 62.470723,-93.045551 -100.20101,-65.825161 V 139.99521 L 61.990423,112.85657 c 0.24867,-0.0409 0.50074,-0.0647 0.74941,-0.0647 z"
   id="path3955"
   inkscape:connector-curvature="0"
   style="fill:#66ac9b;fill-opacity:1" />
</svg>