<?xml version="1.0" encoding="UTF-8" standalone="no"?>
<!-- Generator: Adobe Illustrator 14.0.0, SVG Export Plug-In . SVG Version: 6.00 Build 43363)  -->

<svg
   xmlns:dc="http://purl.org/dc/elements/1.1/"
   xmlns:cc="http://creativecommons.org/ns#"
   xmlns:rdf="http://www.w3.org/1999/02/22-rdf-syntax-ns#"
   xmlns:svg="http://www.w3.org/2000/svg"
   xmlns="http://www.w3.org/2000/svg"
   xmlns:sodipodi="http://sodipodi.sourceforge.net/DTD/sodipodi-0.dtd"
   xmlns:inkscape="http://www.inkscape.org/namespaces/inkscape"
   version="1.0"
   id="Layer_1"
   x="0px"
   y="0px"
   width="300"
   height="302.77652"
   viewBox="0 0 300 302.77652"
   enable-background="new 0 0 99.083 100"
   xml:space="preserve"
   inkscape:version="0.48.3.1 r9886"
   sodipodi:docname="noun_project_22.svg"><metadata
   id="metadata13"><rdf:RDF><cc:Work
       rdf:about=""><dc:format>image/svg+xml</dc:format><dc:type
         rdf:resource="http://purl.org/dc/dcmitype/StillImage" /></cc:Work></rdf:RDF></metadata><defs
   id="defs11" /><sodipodi:namedview
   pagecolor="#ffffff"
   bordercolor="#666666"
   borderopacity="1"
   objecttolerance="10"
   gridtolerance="10"
   guidetolerance="10"
   inkscape:pageopacity="0"
   inkscape:pageshadow="2"
   inkscape:window-width="1551"
   inkscape:window-height="876"
   id="namedview9"
   showgrid="false"
   inkscape:zoom="1"
   inkscape:cx="-26"
   inkscape:cy="151.38826"
   inkscape:window-x="49"
   inkscape:window-y="24"
   inkscape:window-maximized="1"
   inkscape:current-layer="Layer_1"
   fit-margin-top="0"
   fit-margin-left="0"
   fit-margin-right="0"
   fit-margin-bottom="0" />
<path
   d="M 149.99849,3.2833374e-5 C 67.210316,-0.05446717 0.07568991,67.746273 -9.1552735e-8,151.30955 0.07568991,235.0121 67.210316,302.80374 149.99849,302.7765 232.81996,302.80374 299.94247,235.0121 300,151.30955 299.94247,67.746273 232.81693,-0.05446717 149.99849,3.2833374e-5 z m 0,267.899637166626 c -63.704174,0 -115.348755,-52.17141 -115.282144,-116.59315 -0.06964,-64.285497 51.57797,-116.450857 115.282144,-116.426637 63.73141,-0.0242 115.38205,52.14416 115.45169,116.429667 -0.0696,64.41871 -51.7233,116.59012 -115.45169,116.59012 z"
   id="path3"
   inkscape:connector-curvature="0"
   style="fill:#b15c9b;fill-opacity:1" />
<path
   d="m 134.4388,204.84951 33.90491,-0.15442 v -26.20833 c -0.0787,-7.11827 3.23365,-13.84294 12.11409,-19.64716 8.89557,-5.84662 33.69599,-17.66398 33.73535,-48.80151 -0.0394,-31.019457 -26.08419,-52.380327 -47.98704,-56.982537 -21.8756,-4.46292 -45.59208,-1.48057 -62.38709,17.03118 -15.102492,16.43168 -18.278617,29.49648 -18.339173,58.296577 h 33.895823 v -6.71255 c -0.0666,-15.32655 1.71069,-31.531147 23.58326,-36.027377 12.03234,-2.35257 23.25929,1.39883 29.96579,7.86614 7.56336,7.490687 7.62088,24.267527 -4.58101,32.584797 l -18.99922,12.93764 c -11.06648,7.17277 -14.87541,15.09038 -14.90266,26.68369 v 39.13386 l -0.003,0 z"
   id="path5"
   inkscape:connector-curvature="0"
   style="fill:#b15c9b;fill-opacity:1" />
<polygon
   points="44.35,83.506 44.35,72.041 55.653,72.041 55.653,83.506 44.35,83.506 "
   id="polygon7"
   transform="matrix(3.0277646,0,0,3.0277646,-9.1552735e-8,3.2833374e-5)"
   style="fill:#b15c9b;fill-opacity:1" />
</svg>